<?xml version="1.0" encoding="iso-8859-1"?>
<!-- Generator: Adobe Illustrator 19.0.0, SVG Export Plug-In . SVG Version: 6.00 Build 0)  -->
<svg version="1.1" id="Capa_1" xmlns="http://www.w3.org/2000/svg" xmlns:xlink="http://www.w3.org/1999/xlink" x="0px" y="0px"
	 viewBox="0 0 512.004 512.004" style="enable-background:new 0 0 512.004 512.004;" xml:space="preserve">
<circle style="fill:#FFDC64;" cx="256.002" cy="143.711" r="72.14"/>
<path style="fill:#FFC850;" d="M223.938,143.712c0-32.883,22.021-60.574,52.105-69.265c-6.369-1.84-13.079-2.88-20.04-2.88
	c-39.845,0-72.145,32.3-72.145,72.145c0,39.844,32.3,72.145,72.145,72.145c6.962,0,13.671-1.04,20.04-2.88
	C245.96,204.286,223.938,176.595,223.938,143.712z"/>
<ellipse style="fill:#6E555E;" cx="256.002" cy="360.151" rx="120.24" ry="144.29"/>
<path style="fill:#5F4B55;" d="M215.922,360.148c0-58.272,17.649-110.195,45.177-143.982c-1.703-0.086-3.376-0.309-5.097-0.309
	c-66.408,0-120.242,64.601-120.242,144.29s53.834,144.29,120.242,144.29c1.721,0,3.394-0.223,5.097-0.309
	C233.572,470.343,215.922,418.419,215.922,360.148z"/>
<path style="fill:#FFDC64;" d="M256.003,344.116c42.994,0,82.098-13.932,111.85-36.666c-17.553-53.595-60.959-91.592-111.85-91.592
	s-94.297,37.998-111.85,91.592C173.905,330.184,213.009,344.116,256.003,344.116z"/>
<path style="fill:#FFC850;" d="M256.003,215.858c-33.338,0-63.389,16.388-85.129,42.712c-0.007-0.009-0.017-0.018-0.024-0.027
	c-0.176,0.213-0.326,0.455-0.501,0.669c-2.207,2.706-4.357,5.479-6.384,8.385c0.017,0.023,0.039,0.043,0.056,0.067
	c-8.275,11.824-15.081,25.171-19.868,39.787c20.359,15.557,45.164,26.847,72.531,32.517c0.574-8.07,0.553-8.24,1.81-15.943
	c1.379-8.456,9.225-14.107,17.747-13.221c5.994,0.623,12.256,0.957,18.803,0.957c43.397,0,75.633-13.341,92.038-36.439
	C325.053,243.74,293.016,215.858,256.003,215.858z"/>
<path style="fill:#FFDC64;" d="M376.018,354.75c-25.878,23.164-69.956,38.43-120.015,38.43s-94.137-15.266-120.015-38.43
	c-0.056,1.853-0.227,3.668-0.227,5.537c0,5.469,0.279,10.853,0.749,16.168c29.36,35.416,71.944,57.842,119.493,57.842
	s90.133-22.426,119.493-57.842c0.47-5.315,0.749-10.699,0.749-16.168C376.245,358.418,376.074,356.603,376.018,354.75z"/>
<path style="fill:#FFC850;" d="M218,390.087c-33.947-5.543-62.943-18.267-82.012-35.337c0,0.011-0.001,0.022-0.001,0.033
	c-0.053,1.75-0.199,3.471-0.214,5.232c0.009,5.709,0.438,11.298,1.068,16.818c23.218,27.841,54.643,47.546,90.212,54.582
	C222.846,418.437,219.822,404.575,218,390.087z"/>
<path style="fill:#E4EAF8;" d="M115.721,404.237l-65.942,31.667c-19.56,9.456-42.276-4.794-42.276-26.519l0,0
	c0-21.26,8.446-41.649,23.479-56.683l142.856-142.856l3.34,33.734L115.721,404.237z"/>
<path style="fill:#D5DCED;" d="M174.829,219.854l-55.893,101.157l-51.375,12.646c-9.308,2.293-18.219,5.539-26.871,9.335
	l-9.709,9.709c-7.126,7.126-12.714,15.481-16.682,24.537l1.055-0.823c16.666-12.987,35.525-22.138,56.042-27.195l36.983-9.103
	l-6.958,12.593c-11.729,21.227-27.53,39.932-46.499,55.043l-33.47,26.663c8.105,5.022,18.604,6.188,28.327,1.487l65.942-31.667
	l61.457-160.657L174.829,219.854z"/>
<path style="fill:#E4EAF8;" d="M177.178,243.58l-66.069,153.026c-5.677,13.133,7.386,26.562,20.67,21.248l31.014-12.405
	c8.061-3.225,13.759-10.544,14.906-19.15l16.179-122.677L177.178,243.58z"/>
<path style="fill:#D5DCED;" d="M148.561,411.141l14.232-5.693c8.061-3.225,13.759-10.544,14.906-19.15l16.179-122.677
	l-11.205-13.447L148.561,411.141z"/>
<path style="fill:#E4EAF8;" d="M396.285,404.237l65.942,31.667c19.56,9.456,42.276-4.794,42.276-26.519l0,0
	c0-21.26-8.446-41.649-23.479-56.683L338.168,209.845l-3.34,33.734L396.285,404.237z"/>
<path style="fill:#D5DCED;" d="M337.177,219.854l55.893,101.157l51.375,12.646c9.308,2.293,18.219,5.539,26.871,9.335l9.709,9.709
	c7.126,7.126,12.714,15.481,16.682,24.537l-1.055-0.823c-16.666-12.987-35.525-22.138-56.042-27.195l-36.983-9.103l6.958,12.593
	c11.729,21.227,27.53,39.932,46.499,55.043l33.471,26.664c-8.105,5.022-18.604,6.188-28.327,1.487l-65.942-31.667L334.829,243.58
	L337.177,219.854z"/>
<path style="fill:#E4EAF8;" d="M334.828,243.58l66.069,153.026c5.677,13.133-7.386,26.562-20.67,21.248l-31.014-12.405
	c-8.061-3.225-13.759-10.544-14.906-19.15l-16.179-122.677L334.828,243.58z"/>
<path style="fill:#D5DCED;" d="M363.445,411.141l-14.232-5.693c-8.061-3.225-13.759-10.544-14.906-19.15l-16.179-122.677
	l11.205-13.447L363.445,411.141z"/>
<path style="fill:#6E555E;" d="M256.003,151.729c48.699,0,88.177,34.095,88.177,76.153s-39.478,60.121-88.177,60.121
	s-88.177-18.063-88.177-60.121S207.304,151.729,256.003,151.729z"/>
<path style="fill:#5F4B55;" d="M223.938,209.255c0-21.529,7.485-41.274,19.941-56.724c-42.946,5.114-76.053,36.854-76.053,75.35
	c0,42.058,39.478,60.121,88.177,60.121c18.528,0,35.702-2.633,49.894-8.189C260.111,278.048,223.938,256.603,223.938,209.255z"/>
<path d="M486.328,347.463L378.319,239.454h21.283c3.864,0,7.626,1.362,10.594,3.835l41.408,34.507
	c1.402,1.168,3.104,1.738,4.797,1.738c2.149,0,4.282-0.919,5.766-2.699c2.652-3.182,2.222-7.911-0.96-10.563l-41.408-34.507
	c-5.658-4.715-12.831-7.312-20.197-7.312h-36.284l-13.657-13.657c-1.27-5.351-3.124-10.547-5.531-15.525l22.185-16.638
	c5.894-4.42,9.413-11.458,9.413-18.826v-9.392c0-2.279,0.888-4.421,2.499-6.033l43.401-43.401c2.929-2.929,2.929-7.678,0-10.606
	c-2.929-2.929-7.678-2.929-10.606,0l-43.401,43.401c-4.445,4.445-6.893,10.354-6.893,16.64v9.392c0,2.671-1.276,5.223-3.413,6.826
	l-21.009,15.756c-2.068-2.784-4.327-5.464-6.772-8.024c4.042-9.701,6.113-19.981,6.113-30.59c0-34.285-21.776-63.578-52.223-74.779
	c37.081-46.387,85.373-53.999,85.88-54.073c4.092-0.593,6.933-4.388,6.348-8.483c-0.586-4.101-4.39-6.953-8.485-6.364
	c-2.389,0.342-58.249,8.91-99.571,64.907c-3.787-0.555-7.656-0.853-11.594-0.853c-3.938,0-7.808,0.298-11.594,0.853
	c-41.322-55.996-97.182-64.565-99.57-64.906c-4.101-0.582-7.899,2.264-8.485,6.364c-0.585,4.101,2.264,7.899,6.364,8.485
	c0.505,0.072,48.637,7.45,85.866,54.07c-30.448,11.2-52.225,40.494-52.225,74.78c0,10.653,2.085,20.953,6.151,30.671
	c-2.423,2.541-4.677,5.209-6.748,7.99l-21.071-15.803c-2.137-1.603-3.413-4.154-3.413-6.826v-9.392
	c0-6.286-2.448-12.195-6.893-16.64l-43.401-43.401c-2.929-2.929-7.678-2.929-10.606,0c-2.929,2.929-2.929,7.678,0,10.606
	l43.401,43.401c1.611,1.612,2.499,3.754,2.499,6.033v9.392c0,7.368,3.519,14.405,9.413,18.826l22.223,16.667
	c-2.403,4.938-4.276,10.119-5.56,15.486l-13.666,13.666h-36.284c-7.366,0-14.539,2.597-20.197,7.312l-41.408,34.507
	c-3.182,2.652-3.612,7.381-0.96,10.563c1.483,1.78,3.617,2.699,5.766,2.699c1.693,0,3.396-0.57,4.797-1.738l41.408-34.507
	c2.968-2.473,6.73-3.835,10.594-3.835h21.284L25.678,347.463C9.121,364.02,0.003,386.033,0.003,409.449
	c0,12.801,6.474,24.504,17.317,31.306c6.014,3.772,12.797,5.679,19.615,5.678c5.476,0,10.975-1.231,16.108-3.712l53.666-25.944
	c0.676,0.926,1.424,1.818,2.248,2.665c4.577,4.705,10.54,7.183,16.709,7.183c2.962,0,5.972-0.571,8.899-1.742l5.052-2.021
	c20.678,54.292,65.954,89.142,116.385,89.142c50.525,0,95.721-34.81,116.397-89.137l5.042,2.017c2.927,1.17,5.936,1.742,8.898,1.742
	c6.168,0,12.132-2.478,16.709-7.183c0.824-0.847,1.572-1.739,2.248-2.665l53.666,25.944c5.134,2.482,10.631,3.712,16.108,3.712
	c6.817,0,13.603-1.907,19.615-5.678c10.844-6.802,17.317-18.505,17.317-31.306C512.003,386.033,502.885,364.019,486.328,347.463z
	 M256.003,79.132c35.646,0,64.645,29,64.645,64.646c0,6.887-1.071,13.6-3.17,20.034c-3.06-2.238-6.3-4.325-9.711-6.245
	c-3.608-2.031-8.183-0.752-10.214,2.857s-0.753,8.183,2.857,10.214c22.712,12.784,36.271,34.208,36.271,57.309
	c0,17.128-7.484,30.397-22.244,39.437c-14.083,8.625-34.289,13.185-58.434,13.185s-44.351-4.559-58.434-13.185
	c-14.76-9.04-22.244-22.308-22.244-39.437c0-37.855,36.192-68.653,80.677-68.653c4.993,0,9.991,0.391,14.855,1.162
	c4.089,0.651,7.933-2.142,8.582-6.233s-2.142-7.933-6.233-8.582c-5.639-0.895-11.427-1.348-17.204-1.348
	c-23.377,0-44.819,7.373-61.455,19.592c-2.115-6.452-3.19-13.188-3.19-20.108C191.358,108.132,220.357,79.132,256.003,79.132z
	 M184.965,388.351c18.577,9.459,42.838,14.432,71.038,14.432c8.623,0,17.009-0.472,24.924-1.403
	c4.114-0.484,7.056-4.211,6.572-8.325c-0.484-4.113-4.206-7.048-8.325-6.572c-7.336,0.863-15.132,1.301-23.171,1.301
	c-28.44,0-52.153-5.312-68.964-15.389l3.895-30.587c17.653,6.47,39.903,9.873,65.07,9.873c25.138,0,47.427-3.394,65.072-9.857
	l3.892,30.569c-4.603,2.754-9.763,5.179-15.403,7.219c-3.896,1.408-5.912,5.708-4.503,9.603c1.104,3.054,3.984,4.952,7.054,4.952
	c0.846,0,1.708-0.145,2.549-0.449c4.363-1.577,8.494-3.371,12.379-5.349c0.786,4.711,2.614,9.108,5.281,12.911
	c-16.67,15.25-43.448,23.579-76.32,23.579c-32.844,0-59.66-8.338-76.322-23.583C182.345,397.471,184.174,393.072,184.965,388.351z
	 M319.124,326.502c-16.373,6.666-38.094,10.178-63.121,10.178c-25.064,0-46.742-3.52-63.119-10.192l5.312-41.72
	c15.249,7.033,34.727,10.799,57.807,10.799s42.558-3.766,57.807-10.799L319.124,326.502z M46.515,429.216
	c-6.846,3.311-14.781,2.874-21.224-1.168c-6.442-4.041-10.289-10.994-10.289-18.599c0-19.409,7.558-37.656,21.282-51.379
	l124.301-124.301c0.557,6.828,2.091,13.173,4.574,18.981l-60.935,140.944c-1.213,2.805-1.863,5.704-1.976,8.577L46.515,429.216z
	 M128.994,410.954c-4.923,1.968-8.351-1.012-9.285-1.973c-0.934-0.96-3.819-4.471-1.716-9.335l56.897-131.604
	c2.716,3.048,5.815,5.85,9.243,8.421l-13.868,108.908c-0.789,5.913-4.719,10.962-10.258,13.178L128.994,410.954z M256.003,497.003
	c-44.182,0-84.055-31.17-102.457-79.714l12.032-4.813c0.942-0.377,1.85-0.811,2.741-1.271
	c19.553,18.765,49.725,28.653,87.683,28.653c37.42,0,68.238-10.135,87.668-28.661c0.896,0.463,1.809,0.9,2.757,1.279l12.042,4.817
	C340.069,465.868,300.269,497.003,256.003,497.003z M486.714,428.048c-6.442,4.042-14.375,4.479-21.224,1.168l-55.734-26.944
	c-0.113-2.873-0.763-5.772-1.976-8.577l-36.54-84.519c-1.644-3.802-6.057-5.552-9.86-3.908c-3.802,1.644-5.552,6.059-3.908,9.86
	l36.54,84.519c2.103,4.864-0.782,8.375-1.716,9.335c-0.935,0.96-4.364,3.94-9.285,1.973l-31.014-12.406
	c-5.539-2.216-9.469-7.265-10.252-13.134l-13.873-108.952c3.428-2.572,6.526-5.373,9.243-8.421l6.48,14.988
	c1.225,2.833,3.987,4.526,6.888,4.526c0.993,0,2.003-0.199,2.972-0.618c3.802-1.644,5.552-6.059,3.908-9.86l-10.518-24.328
	c2.483-5.809,4.016-12.153,4.574-18.981L475.72,358.07c13.724,13.724,21.282,31.971,21.282,51.379
	C497.003,417.053,493.157,424.007,486.714,428.048z"/>
<g>
</g>
<g>
</g>
<g>
</g>
<g>
</g>
<g>
</g>
<g>
</g>
<g>
</g>
<g>
</g>
<g>
</g>
<g>
</g>
<g>
</g>
<g>
</g>
<g>
</g>
<g>
</g>
<g>
</g>
</svg>
