<svg id="Capa_1" enable-background="new 0 0 499.149 499.149" height="512" viewBox="0 0 499.149 499.149" width="512" xmlns="http://www.w3.org/2000/svg"><g><g fill="#b5adb6"><path d="m103.385 48.764-44.68-42.38c-6.24-5.91-16.09-5.65-22 .58-5.91 6.24-5.65 16.08.59 22l42.13 39.96 6.994 2.49 18.959-13.876.357-5.933c-.66-1.041-1.45-1.991-2.35-2.841z"/><path d="m55.505 158.034c-2.32-.61-4.78-.68-7.19-.17l-36 7.67c-8.4 1.79-13.76 10.06-11.97 18.46 1.79 8.41 10.06 13.76 18.46 11.97l27.855-5.937c.305-.065.623.019.856.225l.589.521 12.753-6.234.774-19.685z"/><path d="m41.484 345.222-7.169 2.481-.14.26-22 15.6c-7.01 4.97-8.66 14.68-3.69 21.69 3.03 4.28 7.83 6.56 12.7 6.56 3.11 0 6.25-.93 8.99-2.87l24.94-17.68c1.93-1.37 3.53-3.17 4.66-5.25v-11.65z"/><path d="m147.21 261.153-11.525-4.159-62.53 26.48-4.539 10.029 12.474 21.195 9.195-4.694 58.54-24.79 5.179-7.328z"/><path d="m152.632 316.125-12.297 4.109-47.13 44.74c-1.75 1.66-3.07 3.68-3.89 5.9l3.807 13.42 20.571 6.036 5.772-6.036v-1.35l41.97-39.84 5.45-12.579z"/><path d="m405.945 364.974-47.15-44.76-9.071-3.588-14.273 13.738 2.264 12.74 41.97 39.84v1.56l4.294 6.52 23.372-6.52 2.534-13.48c-.81-2.28-2.15-4.35-3.94-6.05z"/><path d="m424.825 475.554-14.03-34.09-4.287-7.595-22.883 2.367-3.94 8.308c0 2.03.39 4.05 1.17 5.93l15.2 36.93c2.48 6 8.28 9.63 14.4 9.63 1.97 0 3.97-.38 5.91-1.17 7.95-3.27 11.74-12.37 8.46-20.31z"/><path d="m425.995 283.474-61.33-25.97-11.886 1.335-7.468 17.958 5.864 8.777 57.69 24.43h9.876l11.557-19.873z"/><path d="m486.975 363.564-22-15.6-.09-.17-9.266-2.961-15.566 12.019-.678 9.161c1.13 2.08 2.73 3.88 4.66 5.25l24.94 17.68c2.74 1.94 5.88 2.87 8.99 2.87 4.87 0 9.67-2.28 12.7-6.56 4.97-7.009 3.32-16.719-3.69-21.689z"/><path d="m486.835 165.534-36-7.67c-2.49-.53-5.04-.44-7.43.23l-7.69 10.534 5.496 23.267 10.054-1.321.74-.65 28.34 6.04c8.4 1.79 16.67-3.56 18.46-11.97 1.79-8.4-3.57-16.67-11.97-18.46z"/><path d="m462.445 6.964c-5.92-6.23-15.76-6.49-22-.58l-44.68 42.38c-.85.8-1.6 1.7-2.25 2.68l1.065 14.649 16.939 10.277 8.206-7.447 42.13-39.96c6.24-5.919 6.5-15.759.59-21.999z"/><path d="m217.585 57.874c.56-2.16-1.89-3.84-3.7-2.54l-11.23 8.06c-18.23 13.08-28.48 34.6-27.13 57 .26 4.34 1.26 8.59 2.96 12.59l6.11 14.38 14.402 10.67 13.84-8.411-1.743-17.139-5.71-11.3c-1.83-3.62-2.27-7.79-1.25-11.72z"/></g><path d="m267.588 160.882 2.073-3.737c4.839-8.724 6.363-18.903 4.291-28.662l-4.063-19.137c-.432-2.035-3.097-2.551-4.258-.825l-13.016 19.354c-1.452 2.159-4.628 2.159-6.08 0l-13.016-19.354c-1.161-1.726-3.826-1.21-4.258.825l-4.063 19.137c-2.072 9.759-.548 19.938 4.291 28.662l2.073 3.737 9.283 23.587h17.23z" fill="#cbc4cc"/><path d="m296.495 63.394-11.23-8.06c-1.81-1.3-4.26.38-3.7 2.54l13.45 51.59c1.02 3.93.58 8.1-1.25 11.72l-5.71 11.3v17.509l15.015 5.895 11.495-8.544 6.1-14.36c1.7-4 2.7-8.25 2.96-12.59.08-1.32.12-2.63.12-3.94 0-20.96-10.09-40.75-27.25-53.06z" fill="#b5adb6"/><path d="m314.565 147.344-15.52 36.53-24.19 52.58-31.99-12.25 29.81-61.25 15.38-30.47 24.45 13.62z" fill="#ee6161"/><path d="m226.475 162.954 20.49 48.83-26.27 16.84-20.59-44.75-15.51-36.51 2.05-1.26 24.45-13.62z" fill="#ee6161"/><path d="m387.133 133.384-12.176-5.43-12.783 3.61-63.37 57.29-57.96 55.88 23.08 20 40.2-38.75 81.66-73.82c1.81-1.63 3.21-3.67 4.08-5.94z" fill="#b5adb6"/><path d="m408.651 202.762-14.156-3.638-80.54 17.98-52.12 11.52 5.67 31.25 36.62-8.7 101.05-22.55 10.499-13.438z" fill="#b5adb6"/><path d="m364.665 257.504-13.49 28.07-47.05-19.92-74.4-25.4 13.28-29.96 90.98 34.22z" fill="#ee6161"/><path d="m304.125 268.314 54.67 51.9-2.17 2.45-18.91 20.44-44.5-42.25-46.25-50.54 13.36-29.67z" fill="#ee6161"/><path d="m200.345 188.854-63.37-57.29-4.837-4.161-21.057 10.862-1.797 7.959c.87 2.27 2.27 4.31 4.08 5.94l81.66 73.82 31.45 31.94 21.7-29.3z" fill="#b5adb6"/><path d="m185.195 217.104-80.54-17.98-9.214 2.214-6.771 18.292 5.305 8.994 101.05 22.55 54.55 8.7 5.23-26.3z" fill="#b5adb6"/><path d="m251.095 215.414 6.98 31.62-63.05 18.62-46.2 19.56-.74-1.74-11.11-23.6-1.29-2.88 29.48-12.48z" fill="#ee6161"/><path d="m231.625 231.114 16.55 22.21-42.24 47.53-44.5 42.25-21.1-22.87 54.69-51.92z" fill="#ee6161"/><path d="m280.537 313.019c18.466 13.962 30.896 40.005 30.896 69.853 0 44.57-27.695 80.702-61.859 80.702s-61.859-36.131-61.859-80.702c0-29.848 12.43-55.892 30.896-69.853l21.199-16.28h27.654z" fill="#b5adb6"/><g><path d="m223.157 382.872c0-9.889 1.366-19.359 3.864-28.111 2.43-8.514 10.503-14.018 19.352-13.735.766.025 1.536.037 2.308.037h1.788c16.269 0 31.305-5.379 43.424-14.452-3.944-5.283-8.432-9.87-13.355-13.593l-13.072-16.28h-14.056-13.599l-21.199 16.28c-18.466 13.962-30.896 40.005-30.896 69.853 0 44.57 27.695 80.702 61.859 80.702 6.16 0 12.15-1.195 17.765-3.382-25.526-9.942-44.183-40.786-44.183-77.319z" fill="#a79ba7"/><path d="m250.469 321.064h-1.788c-29.051 0-52.601-23.55-52.601-52.601v-56.426c0-29.051 23.55-52.601 52.601-52.601h1.788c29.051 0 52.601 23.55 52.601 52.601v56.426c0 29.05-23.551 52.601-52.601 52.601z" fill="#cbc4cc"/><path d="m227.988 268.463v-56.426c0-23.815 15.864-43.932 37.574-50.41-4.773-1.424-9.858-2.191-15.094-2.191h-1.788c-29.051 0-52.601 23.55-52.601 52.601v56.426c0 29.051 23.55 52.601 52.601 52.601h1.788c5.235 0 10.321-.773 15.094-2.198-21.709-6.478-37.574-26.588-37.574-50.403z" fill="#b5adb6"/><g id="XMLID_163_"><g><path d="m419.725 68.924-29.86 77.3-27.69-14.66 29.78-77.12c.41-1.06.94-2.06 1.56-3z" fill="#ee6161"/></g></g><g id="XMLID_161_"><g><path d="m451.265 190.574-39.2 34.54c-1.96 1.73-4.33 2.94-6.89 3.51l-10.68-29.5 42.81-37.72c1.78-1.57 3.87-2.69 6.1-3.31l.88 3.34 6.03 25.25z" fill="#ee6161"/></g></g><g id="XMLID_162_"><g><path d="m433.585 290.354 31.3 57.44-3.07 2.4-22.44 15.82-30.51-56.01 17.13-26.53c3.23 1.37 5.91 3.8 7.59 6.88z" fill="#ee6161"/></g></g><g id="XMLID_160_"><g><path d="m410.795 376.254v65.21l-31.11 3.08v-60.04l4.18-1.98 22.65-10.24 3.37-1.26c.59 1.66.91 3.43.91 5.23z" fill="#ee6161"/></g></g><g id="XMLID_159_"><g><path d="m107.195 54.444 29.78 77.12-27.69 14.66-29.86-77.3 23.23-15.31 3.08-2.01c.58.89 1.07 1.84 1.46 2.84z" fill="#ee6161"/></g></g><g id="XMLID_158_"><g><path d="m104.655 199.124-10.68 29.5c-2.56-.57-4.93-1.78-6.89-3.51l-38.98-34.34 7.4-32.74c2.32.6 4.5 1.75 6.34 3.37z" fill="#ee6161"/></g></g><g id="XMLID_157_"><g><path d="m73.155 283.474 17.13 26.53-30.51 56.01-22.44-15.82-3.02-2.49 31.25-57.35c1.68-3.08 4.36-5.51 7.59-6.88z" fill="#ee6161"/></g></g><g id="XMLID_144_"><g><path d="m117.146 436.299-22.57-2.224-6.221 7.389-14.03 34.09c-3.28 7.94.51 17.04 8.46 20.31 1.94.79 3.94 1.17 5.91 1.17 6.12 0 11.92-3.63 14.4-9.63l15.2-36.93c.78-1.88 1.17-3.9 1.17-5.93z" fill="#b5adb6"/><path d="m119.465 384.294v60.25l-31.11-3.08v-65.21c0-1.86.33-3.68.96-5.38l3.32 1.41 22.65 10.24z" fill="#ee6161"/></g></g></g></g></svg>