<?xml version="1.0" encoding="iso-8859-1"?>
<!-- Generator: Adobe Illustrator 19.0.0, SVG Export Plug-In . SVG Version: 6.00 Build 0)  -->
<svg version="1.1" id="Capa_1" xmlns="http://www.w3.org/2000/svg" xmlns:xlink="http://www.w3.org/1999/xlink" x="0px" y="0px"
	 viewBox="0 0 512.001 512.001" style="enable-background:new 0 0 512.001 512.001;" xml:space="preserve">
<g>
	<path style="fill:#C1876B;" d="M241.134,200.81c-2.23,0-4.257-1.315-5.164-3.351l-43.916-98.471
		c-3.97-7.93-5.604-16.659-4.768-25.328c0.281-2.912,2.69-5.108,5.602-5.108c0.186,0,0.372,0.009,0.56,0.027
		c1.507,0.145,2.862,0.867,3.822,2.031c0.96,1.165,1.408,2.633,1.264,4.135c-0.638,6.599,0.624,13.247,3.649,19.226
		c0.041,0.081,0.081,0.166,0.119,0.251l43.988,98.634c1.269,2.845-0.014,6.193-2.859,7.462
		C242.698,200.645,241.925,200.81,241.134,200.81z"/>
	<path style="fill:#C1876B;" d="M265.932,200.81c-0.827,0-1.629-0.179-2.385-0.533c-1.368-0.638-2.405-1.772-2.92-3.189
		c-0.515-1.419-0.447-2.952,0.191-4.32l46.134-98.794c3.025-5.981,4.287-12.629,3.65-19.228c-0.145-1.502,0.303-2.97,1.264-4.135
		c0.96-1.165,2.315-1.886,3.817-2.03c0.194-0.02,0.382-0.029,0.568-0.029c2.911,0,5.317,2.197,5.599,5.109
		c0.839,8.691-0.806,17.44-4.759,25.305l-46.034,98.583C270.131,199.53,268.119,200.81,265.932,200.81z"/>
</g>
<path style="fill:#FC5E71;" d="M431.108,50.532c-90.346,36.905-160.05,197.522-160.05,197.522v27.131c0,0,0.174,0.017,0.499,0.047
	c-0.319-0.03-0.499-0.047-0.499-0.047s-25.183,92.041,52.577,164.008s167.577-5.536,156.673-102.415
	c-6.058-53.82-42.987-69.561-42.988-69.561h-0.001c28.807-7.489,52.098-19.9,59.992-40.068
	C523.791,159.49,521.454,13.627,431.108,50.532z"/>
<path style="fill:#FD747F;" d="M271.058,275.185c0,0,34.525,3.391,76.77,2.493c29.865-0.544,63.155-3.141,89.489-10.46
	c0.001,0,0.002,0,0.003-0.001c0.001,0.001,36.93,15.741,42.988,69.561c10.904,96.879-78.913,174.381-156.673,102.414
	C245.875,367.226,271.058,275.185,271.058,275.185z"/>
<g>
	<path style="fill:#FC5E71;" d="M480.307,336.778c-3.201-28.436-15.018-46.235-25.454-56.706c0.703,3.4,1.291,6.958,1.715,10.722
		c10.904,96.879-78.913,174.382-156.673,102.415c-9.379-8.681-17.248-17.654-23.857-26.722
		c7.922,23.789,22.315,49.307,47.596,72.705C401.395,511.16,491.211,433.657,480.307,336.778z"/>
	<path style="fill:#FC5E71;" d="M431.108,50.532c-90.346,36.905-160.05,197.522-160.05,197.522v27.131c0,0,0.173,0.017,0.496,0.047
		c4.302,0.4,36.933,3.282,76.274,2.446c29.865-0.544,63.155-3.141,89.489-10.46c0.001,0,0.002,0,0.003-0.001h-0.001
		c28.807-7.489,52.098-19.9,59.992-40.068C523.791,159.49,521.454,13.627,431.108,50.532z"/>
</g>
<path style="fill:#EF506B;" d="M431.108,50.532c-0.946,0.387-1.89,0.792-2.831,1.205c39.461,26.92,36.017,123.862,15.841,175.412
	c-7.893,20.168-31.185,32.579-59.992,40.068h0.001c-0.001,0-0.002,0-0.003,0.001c-22.847,6.35-50.927,9.143-77.466,10.127
	c11.914,0.426,26.041,0.655,41.17,0.333c29.865-0.544,63.155-3.141,89.489-10.46c0.001,0,0.002,0,0.003-0.001h-0.001
	c28.807-7.489,52.098-19.9,59.992-40.068C523.791,159.49,521.454,13.627,431.108,50.532z"/>
<path style="fill:#FC5E71;" d="M480.307,336.778c-0.002-0.017-0.005-0.033-0.007-0.049c-15.977-6.949-75.943-30.907-129.808-24.565
	c-16.31-15.565-28.735-24.998-37.517-28.51l-16.898-6.759c-15.355-0.761-25.02-1.709-25.02-1.709s-0.751,2.748-1.593,7.661
	l37.789,15.115c27.644,11.057,108.716,107.562,137.622,143.814c0.218,0.274,0.455,0.523,0.7,0.758
	c3.67-3.565,7.126-7.451,10.327-11.639c-5.12-6.374-29.097-36.043-56.275-66.77c-12.804-14.476-24.324-26.97-34.622-37.55
	c53.85-1.375,111.973,25.534,112.738,25.892c1.059,0.499,2.175,0.734,3.273,0.734c0.06,0,0.12-0.011,0.18-0.013
	C481.21,347.797,480.931,342.322,480.307,336.778z"/>
<g>
	<path style="fill:#EF506B;" d="M424.938,393.417c-3.578,3.789-7.393,7.242-11.403,10.342c12.74,15.042,23.811,28.575,31.34,38.016
		c0.218,0.274,0.455,0.523,0.7,0.758c1.818-1.766,3.582-3.612,5.29-5.533c0.02-0.022,0.04-0.044,0.06-0.066
		c0.806-0.909,1.598-1.837,2.378-2.78c0.058-0.07,0.117-0.137,0.175-0.206c0.82-0.996,1.625-2.01,2.415-3.042
		c0.003-0.004,0.006-0.008,0.009-0.012C452.473,426.626,440.58,411.903,424.938,393.417z"/>
	<path style="fill:#EF506B;" d="M477.743,352.467c1.059,0.499,2.175,0.734,3.273,0.734c0.06,0,0.12-0.011,0.18-0.013
		c0,0,0-0.003,0-0.004c0.004-1.343-0.011-2.691-0.045-4.043c-0.001-0.022-0.002-0.044-0.002-0.066
		c-0.033-1.311-0.085-2.627-0.154-3.948c-0.017-0.31-0.042-0.623-0.061-0.934c-0.062-1.052-0.128-2.105-0.215-3.162
		c-0.117-1.414-0.251-2.832-0.411-4.254v-0.001c-0.002-0.017-0.005-0.032-0.006-0.049c-4.716-2.051-13.267-5.585-24.359-9.383
		c-0.782,5.227-1.845,10.334-3.19,15.288C467.743,347.836,477.433,352.322,477.743,352.467z"/>
</g>
<path style="fill:#FC5E71;" d="M270.95,298.865l-3.273-1.291c-0.366,4.813-0.578,10.266-0.486,16.237
	c67.203,17.305,77.427,119.828,78.852,141.959c5.028,2.845,10.061,5.131,15.07,6.899c0.379-0.943,0.578-1.975,0.552-3.056
	c-0.034-1.395-0.952-34.61-12.151-70.958C334.272,339.188,307.105,308.138,270.95,298.865z"/>
<path style="fill:#EF506B;" d="M361.665,459.614c-0.023-0.958-0.463-16.899-4.356-38.553c-5.398-0.477-10.87-1.522-16.381-3.202
	c3.426,16.973,4.681,31.172,5.114,37.912c1.254,0.71,2.508,1.384,3.762,2.024c0.027,0.014,0.054,0.026,0.082,0.04
	c1.233,0.628,2.465,1.225,3.697,1.788c0.003,0.001,0.005,0.002,0.008,0.004c2.51,1.147,5.019,2.159,7.521,3.043
	C361.492,461.727,361.691,460.694,361.665,459.614z"/>
<path style="fill:#FD747F;" d="M502.945,210.041c1.849-6.688,3.453-13.798,4.776-21.168c-13.93-17.404-36.445-30.297-66.388-37.795
	c-15.269-3.822-29.651-5.575-40.17-6.377c47.693-42.183,90.541-77.182,93.369-79.486c-3.008-4.46-6.444-8.32-10.337-11.455
	C470.622,64.824,321.64,186.826,271.057,251.855v20.578c0.021,0,0.042,0.005,0.064,0.005c2.444,0,4.848-1.161,6.343-3.323
	c18.962-27.412,63.393-70.284,107.165-109.668C388.523,159.406,478.97,159.389,502.945,210.041z"/>
<g>
	<path style="fill:#FC5E71;" d="M458.369,156.221c-0.306,5.339-0.77,10.666-1.379,15.927c19.24,7.438,37.116,19.219,45.955,37.894
		v-0.001c0.45-1.627,0.884-3.28,1.304-4.955c0.02-0.081,0.041-0.161,0.061-0.242c0.411-1.647,0.808-3.315,1.19-5.003
		c0.02-0.09,0.041-0.181,0.061-0.271c0.384-1.708,0.754-3.435,1.108-5.181c0.007-0.035,0.014-0.07,0.021-0.105
		c0.36-1.785,0.705-3.589,1.032-5.408c0,0,0-0.002,0-0.003C496.574,174.946,479.917,163.918,458.369,156.221z"/>
	<path style="fill:#FC5E71;" d="M449.867,82.266c1.883,5.083,3.446,10.531,4.709,16.255c22.51-19.059,38.278-31.938,39.956-33.305
		c-0.001-0.002-0.002-0.003-0.003-0.005c-0.347-0.514-0.7-1.017-1.058-1.515c-0.076-0.105-0.153-0.209-0.229-0.314
		c-0.3-0.412-0.605-0.818-0.913-1.218c-0.075-0.098-0.15-0.196-0.226-0.293c-0.777-0.995-1.577-1.955-2.404-2.875
		c-0.005-0.005-0.01-0.011-0.014-0.016c-0.402-0.447-0.811-0.883-1.226-1.312c-0.057-0.059-0.115-0.118-0.172-0.177
		c-0.39-0.399-0.784-0.791-1.185-1.173c-0.037-0.036-0.074-0.072-0.112-0.108c-0.903-0.858-1.833-1.674-2.79-2.446
		c-0.001-0.001-0.003-0.002-0.004-0.003C480.642,56.657,467.793,67.17,449.867,82.266z"/>
</g>
<path style="fill:#FD747F;" d="M414.118,211.285c-0.09-0.024-0.181-0.046-0.271-0.067c-22.404-5.099-45.554,2.611-60.433,20.117
	l-40.781,46.201c6.31,0.177,13.125,0.289,20.294,0.293l32.088-36.354c0.034-0.038,0.067-0.077,0.1-0.116
	c11.116-13.111,28.416-18.909,45.183-15.146l73.343,19.501c4.513-3.876,8.235-8.2,10.999-13.02L414.118,211.285z"/>
<g>
	<path style="fill:#FC5E71;" d="M494.641,232.694l-47.915-12.74c-0.834,2.481-1.703,4.886-2.607,7.195
		c-0.972,2.482-2.179,4.846-3.599,7.099l43.12,11.465c0.017-0.014,0.033-0.028,0.05-0.042c0.516-0.444,1.021-0.895,1.516-1.35
		c0.04-0.037,0.082-0.073,0.122-0.111c0.514-0.476,1.017-0.959,1.507-1.448c0.017-0.017,0.035-0.034,0.053-0.052
		C489.962,239.636,492.57,236.305,494.641,232.694z"/>
	<path style="fill:#FC5E71;" d="M80.892,50.532c90.346,36.905,160.05,197.522,160.05,197.522v27.131c0,0-0.174,0.017-0.499,0.047
		c0.319-0.03,0.499-0.047,0.499-0.047s25.183,92.041-52.577,164.008S20.788,433.657,31.692,336.778
		c6.058-53.82,42.987-69.561,42.988-69.561h0.001c-28.807-7.489-52.098-19.9-59.992-40.068
		C-11.791,159.49-9.454,13.627,80.892,50.532z"/>
</g>
<path style="fill:#FD747F;" d="M240.942,275.185c0,0-34.525,3.391-76.77,2.493c-29.865-0.544-63.155-3.141-89.489-10.46
	c-0.001,0-0.002,0-0.003-0.001c-0.002,0.001-36.93,15.741-42.988,69.561c-10.904,96.879,78.913,174.381,156.673,102.414
	C266.125,367.226,240.942,275.185,240.942,275.185z"/>
<g>
	<path style="fill:#FC5E71;" d="M31.693,336.778c3.2-28.436,15.018-46.235,25.454-56.706c-0.703,3.4-1.291,6.958-1.715,10.722
		c-10.904,96.879,78.913,174.382,156.673,102.415c9.379-8.681,17.248-17.654,23.857-26.722
		c-7.922,23.789-22.315,49.307-47.596,72.705C110.605,511.16,20.789,433.657,31.693,336.778z"/>
	<path style="fill:#FC5E71;" d="M80.892,50.532c90.346,36.905,160.05,197.522,160.05,197.522v27.131c0,0-0.173,0.017-0.496,0.047
		c-4.302,0.4-36.933,3.282-76.274,2.446c-29.865-0.544-63.155-3.141-89.489-10.46c-0.001,0-0.002,0-0.003-0.001h0.001
		c-28.807-7.489-52.098-19.9-59.992-40.068C-11.791,159.49-9.454,13.627,80.892,50.532z"/>
</g>
<path style="fill:#EF506B;" d="M80.892,50.532c0.946,0.387,1.89,0.792,2.831,1.205c-39.461,26.92-36.017,123.862-15.841,175.412
	c7.893,20.168,31.185,32.579,59.992,40.068h-0.001c0.001,0,0.002,0,0.002,0c22.848,6.35,50.928,9.143,77.467,10.127
	c-11.914,0.426-26.041,0.655-41.17,0.333c-29.865-0.544-63.155-3.141-89.489-10.46c-0.001,0-0.002,0-0.003-0.001h0.001
	c-28.807-7.489-52.098-19.9-59.992-40.068C-11.791,159.49-9.454,13.627,80.892,50.532z"/>
<path style="fill:#FC5E71;" d="M31.693,336.778c0.002-0.017,0.005-0.033,0.007-0.049c15.977-6.949,75.943-30.907,129.808-24.565
	c16.31-15.565,28.735-24.998,37.517-28.51l16.898-6.759c15.355-0.761,25.02-1.709,25.02-1.709s0.751,2.748,1.593,7.661
	l-37.789,15.115C177.103,309.019,96.031,405.524,67.125,441.775c-0.218,0.274-0.455,0.523-0.7,0.758
	c-3.67-3.565-7.126-7.451-10.327-11.639c5.12-6.374,29.097-36.043,56.275-66.77c12.804-14.476,24.324-26.97,34.622-37.55
	c-53.85-1.375-111.973,25.534-112.738,25.892c-1.059,0.499-2.175,0.734-3.273,0.734c-0.06,0-0.12-0.011-0.18-0.013
	C30.79,347.797,31.069,342.322,31.693,336.778z"/>
<g>
	<path style="fill:#EF506B;" d="M87.062,393.417c3.578,3.789,7.393,7.242,11.403,10.342c-12.74,15.042-23.811,28.575-31.34,38.016
		c-0.218,0.274-0.455,0.523-0.7,0.758c-1.818-1.766-3.582-3.612-5.29-5.533c-0.02-0.022-0.04-0.044-0.06-0.066
		c-0.806-0.909-1.598-1.837-2.378-2.78c-0.058-0.07-0.117-0.137-0.175-0.206c-0.82-0.996-1.625-2.01-2.415-3.042
		c-0.003-0.004-0.006-0.008-0.009-0.012C59.527,426.626,71.42,411.903,87.062,393.417z"/>
	<path style="fill:#EF506B;" d="M34.257,352.467c-1.059,0.499-2.175,0.734-3.273,0.734c-0.06,0-0.12-0.011-0.18-0.013
		c0,0,0-0.003,0-0.004c-0.004-1.343,0.011-2.691,0.045-4.043c0.001-0.022,0.002-0.044,0.002-0.066
		c0.033-1.311,0.085-2.627,0.154-3.948c0.017-0.31,0.042-0.623,0.061-0.934c0.062-1.052,0.128-2.105,0.215-3.162
		c0.117-1.414,0.251-2.832,0.411-4.254v-0.001c0.002-0.017,0.005-0.032,0.007-0.049c4.716-2.051,13.267-5.585,24.359-9.383
		c0.782,5.227,1.845,10.334,3.19,15.288C44.257,347.836,34.567,352.322,34.257,352.467z"/>
</g>
<path style="fill:#FC5E71;" d="M241.05,298.865l3.273-1.291c0.366,4.813,0.578,10.266,0.486,16.237
	c-67.203,17.305-77.427,119.828-78.852,141.959c-5.028,2.845-10.061,5.131-15.07,6.899c-0.379-0.943-0.578-1.975-0.553-3.056
	c0.034-1.395,0.952-34.61,12.151-70.958C177.728,339.188,204.895,308.138,241.05,298.865z"/>
<path style="fill:#EF506B;" d="M150.335,459.614c0.023-0.958,0.463-16.899,4.356-38.553c5.398-0.477,10.87-1.522,16.381-3.202
	c-3.426,16.973-4.681,31.172-5.114,37.912c-1.254,0.71-2.508,1.384-3.762,2.024c-0.027,0.014-0.054,0.026-0.082,0.04
	c-1.233,0.628-2.465,1.225-3.697,1.788c-0.003,0.001-0.005,0.002-0.008,0.004c-2.51,1.147-5.019,2.159-7.521,3.043
	C150.508,461.727,150.309,460.694,150.335,459.614z"/>
<path style="fill:#FD747F;" d="M9.055,210.041c-1.849-6.688-3.453-13.798-4.776-21.168c13.93-17.404,36.445-30.297,66.388-37.795
	c15.269-3.822,29.651-5.575,40.17-6.377c-47.693-42.183-90.541-77.182-93.369-79.486c3.008-4.46,6.445-8.32,10.337-11.455
	C41.377,64.824,190.36,186.826,240.943,251.855v20.578c-0.021,0-0.042,0.005-0.064,0.005c-2.444,0-4.848-1.161-6.343-3.323
	c-18.962-27.412-63.393-70.284-107.165-109.668C123.477,159.406,33.03,159.389,9.055,210.041z"/>
<g>
	<path style="fill:#FC5E71;" d="M53.631,156.221c0.306,5.339,0.77,10.666,1.379,15.927c-19.24,7.438-37.116,19.219-45.955,37.894
		v-0.001c-0.45-1.627-0.884-3.28-1.304-4.955c-0.02-0.081-0.041-0.161-0.061-0.242c-0.411-1.647-0.808-3.315-1.19-5.003
		c-0.02-0.09-0.041-0.181-0.061-0.271c-0.384-1.708-0.754-3.435-1.108-5.181c-0.007-0.035-0.014-0.07-0.021-0.105
		c-0.36-1.785-0.705-3.589-1.032-5.408c0,0,0-0.002-0.001-0.003C15.426,174.946,32.083,163.918,53.631,156.221z"/>
	<path style="fill:#FC5E71;" d="M62.133,82.266c-1.883,5.083-3.446,10.531-4.709,16.255c-22.51-19.06-38.278-31.938-39.957-33.306
		c0.001-0.002,0.002-0.003,0.003-0.005c0.347-0.514,0.7-1.017,1.058-1.515c0.076-0.105,0.153-0.209,0.229-0.314
		c0.3-0.412,0.605-0.818,0.913-1.218c0.075-0.098,0.15-0.196,0.226-0.293c0.777-0.995,1.577-1.955,2.404-2.875
		c0.005-0.005,0.01-0.011,0.014-0.016c0.402-0.447,0.812-0.883,1.226-1.312c0.057-0.059,0.115-0.118,0.172-0.177
		c0.39-0.399,0.784-0.791,1.185-1.173c0.037-0.036,0.074-0.072,0.112-0.108c0.903-0.858,1.833-1.674,2.79-2.446
		c0.001-0.001,0.003-0.002,0.004-0.003C31.358,56.657,44.207,67.17,62.133,82.266z"/>
</g>
<path style="fill:#FD747F;" d="M97.882,211.285c0.09-0.024,0.181-0.046,0.271-0.067c22.404-5.099,45.554,2.611,60.433,20.117
	l40.781,46.201c-6.31,0.177-13.126,0.289-20.294,0.293l-32.088-36.354c-0.034-0.038-0.067-0.077-0.1-0.116
	c-11.116-13.111-28.416-18.909-45.183-15.146l-73.343,19.501c-4.513-3.876-8.235-8.2-10.999-13.02L97.882,211.285z"/>
<path style="fill:#FC5E71;" d="M17.359,232.694l47.916-12.74c0.834,2.481,1.703,4.886,2.607,7.195
	c0.972,2.482,2.179,4.846,3.599,7.099L28.36,245.714c-0.016-0.014-0.033-0.028-0.05-0.042c-0.516-0.444-1.021-0.895-1.516-1.35
	c-0.04-0.037-0.082-0.073-0.122-0.111c-0.514-0.476-1.017-0.959-1.507-1.448c-0.017-0.017-0.035-0.034-0.053-0.052
	C22.038,239.636,19.43,236.305,17.359,232.694z"/>
<g>
	<circle style="fill:#A46640;" cx="193.55" cy="73.031" r="12.727"/>
	<circle style="fill:#A46640;" cx="317.04" cy="73.031" r="12.727"/>
</g>
<path style="fill:#FFC855;" d="M272.643,264.666c0-42.671-7.329-77.352-16.447-78.324v-0.046c-0.066,0-0.13,0.02-0.196,0.023
	c-0.066-0.004-0.13-0.023-0.196-0.023v0.046c-9.118,0.972-16.447,35.653-16.447,78.324c0,42.673,7.328,142.956,16.447,145.773v0.067
	c0.065,0,0.131-0.024,0.196-0.034c0.065,0.01,0.13,0.034,0.196,0.034v-0.067C265.314,407.623,272.643,307.339,272.643,264.666z"/>
<path style="fill:#F2B74E;" d="M256.196,186.342v-0.046c-0.066,0-0.13,0.02-0.196,0.023l0,0v224.154l0,0
	c0.065,0.01,0.13,0.033,0.196,0.033v-0.067c9.119-2.816,16.447-103.1,16.447-145.773
	C272.643,221.995,265.314,187.314,256.196,186.342z"/>
<circle style="fill:#FFAF41;" cx="256" cy="204.221" r="21.01"/>
<ellipse style="fill:#FFC855;" cx="256" cy="197.891" rx="14.857" ry="8.526"/>
<g>
</g>
<g>
</g>
<g>
</g>
<g>
</g>
<g>
</g>
<g>
</g>
<g>
</g>
<g>
</g>
<g>
</g>
<g>
</g>
<g>
</g>
<g>
</g>
<g>
</g>
<g>
</g>
<g>
</g>
</svg>
