<?xml version="1.0" encoding="iso-8859-1"?>
<!-- Generator: Adobe Illustrator 19.0.0, SVG Export Plug-In . SVG Version: 6.00 Build 0)  -->
<svg version="1.1" id="Layer_1" xmlns="http://www.w3.org/2000/svg" xmlns:xlink="http://www.w3.org/1999/xlink" x="0px" y="0px"
	 viewBox="0 0 512 512" style="enable-background:new 0 0 512 512;" xml:space="preserve">
<g>
	<path style="fill:#7A645A;" d="M123.353,74.323c-2.976,0-5.589-1.58-7.04-3.943c-5.501-5.654-35.807-29.089-75.541-29.089
		c-4.565,0-8.258-3.693-8.258-8.258s3.693-8.258,8.258-8.258c47.92,0,90.879,31.734,90.879,41.25c0,2.194-0.887,4.315-2.435,5.863
		C127.668,73.436,125.546,74.323,123.353,74.323z"/>
	<path style="fill:#7A645A;" d="M139.869,74.323c-2.194,0-4.298-0.887-5.847-2.443c-1.548-1.548-2.428-3.67-2.428-5.855
		C131.595,59.766,161.006,0,214.192,0c4.565,0,8.258,3.693,8.258,8.258s-3.693,8.258-8.258,8.258
		c-41.572,0-64.516,47.541-66.299,51.484c-0.153,0.637-0.387,1.258-0.694,1.855C145.78,72.597,142.958,74.323,139.869,74.323z"/>
</g>
<circle style="fill:#DC705A;" cx="135.742" cy="66.065" r="28.903"/>
<path style="fill:#FF8C5A;" d="M473.788,491.452l-39.226-70.194c-2.234-3.976-7.242-5.396-11.242-3.177
	c-2.946,1.65-4.471,4.839-4.169,8.002c-1.279,1.453-2.121,3.31-2.121,5.401v72.258c0,4.565,3.693,8.258,8.258,8.258
	s8.258-3.693,8.258-8.258v-50.434l25.823,46.209c1.516,2.701,4.323,4.226,7.218,4.226c1.363,0,2.742-0.339,4.024-1.049
	C474.587,500.468,476.014,495.435,473.788,491.452z"/>
<ellipse transform="matrix(-0.2392 -0.971 0.971 -0.2392 98.338 977.2035)" style="fill:#E1825A;" cx="432.014" cy="450.075" rx="20.78" ry="20.646"/>
<g>
	<path style="fill:#FF8C5A;" d="M469.853,403.211l-82.581,13.936c-4.5,0.758-7.532,5.024-6.774,9.516
		c0.685,4.032,4.178,6.887,8.137,6.887c0.452,0,0.92-0.04,1.379-0.113l82.581-13.936c4.5-0.758,7.532-5.024,6.774-9.516
		C478.604,405.493,474.346,402.469,469.853,403.211z"/>
	<path style="fill:#FF8C5A;" d="M387.128,407.316l80.516-26.839c4.323-1.436,6.661-6.113,5.218-10.443
		c-1.443-4.323-6.081-6.686-10.443-5.218l-80.516,26.839c-4.323,1.436-6.661,6.113-5.218,10.443c1.153,3.46,4.371,5.645,7.831,5.645
		C385.377,407.744,386.257,407.606,387.128,407.316z"/>
	<path style="fill:#FF8C5A;" d="M381.845,378.711l79.621-39.435c4.089-2.024,5.766-6.984,3.742-11.065
		c-2.024-4.089-6.976-5.774-11.065-3.742l-79.621,39.436c-4.089,2.024-5.766,6.984-3.742,11.065
		c1.443,2.911,4.371,4.597,7.412,4.597C379.418,379.566,380.668,379.291,381.845,378.711z"/>
	<path style="fill:#FF8C5A;" d="M447.257,293.937c-2.428-3.871-7.532-5.049-11.387-2.613l-75.161,47.129
		c-3.863,2.428-5.032,7.524-2.613,11.387c1.572,2.5,4.258,3.871,7.008,3.871c1.5,0,3.016-0.404,4.379-1.258l75.161-47.129
		C448.507,302.896,449.676,297.799,447.257,293.937z"/>
	<path style="fill:#FF8C5A;" d="M421.684,269.211c3.306-3.137,3.444-8.363,0.298-11.67c-3.129-3.298-8.355-3.452-11.67-0.298
		l-61.936,58.839c-3.306,3.137-3.444,8.363-0.298,11.67c1.621,1.709,3.799,2.572,5.984,2.572c2.041,0,4.089-0.75,5.686-2.274
		L421.684,269.211z"/>
	<path style="fill:#FF8C5A;" d="M392.571,224.63c-3.645-2.75-8.823-2.008-11.556,1.637l-53.161,70.71
		c-2.742,3.645-2.008,8.823,1.637,11.556c1.484,1.121,3.226,1.661,4.952,1.661c2.508,0,4.984-1.138,6.604-3.298l53.162-70.71
		C396.95,232.541,396.216,227.364,392.571,224.63z"/>
	<path style="fill:#FF8C5A;" d="M357.233,203.993c-3.911-2.323-8.984-1.016-11.306,2.904l-46.283,78.283
		c-2.323,3.928-1.024,8.992,2.904,11.306c1.314,0.782,2.766,1.153,4.194,1.153c2.822,0,5.572-1.451,7.113-4.057l46.283-78.283
		C362.458,211.371,361.159,206.307,357.233,203.993z"/>
	<path style="fill:#FF8C5A;" d="M321.668,184.113c-4.097-2.048-9.041-0.419-11.105,3.637l-41.807,82.581
		c-2.056,4.072-0.427,9.041,3.637,11.105c1.202,0.605,2.475,0.887,3.725,0.887c3.016,0,5.919-1.654,7.379-4.524l41.807-82.581
		C327.361,191.146,325.732,186.178,321.668,184.113z"/>
	<path style="fill:#FF8C5A;" d="M288.643,171.549c-3.903-2.363-8.984-1.097-11.331,2.815l-47.484,78.928
		c-2.355,3.911-1.089,8.984,2.815,11.331c1.331,0.806,2.798,1.185,4.25,1.185c2.798,0,5.532-1.428,7.08-4l47.484-78.928
		C293.812,178.968,292.547,173.896,288.643,171.549z"/>
	<path style="fill:#FF8C5A;" d="M261.329,161.847c-3.653-2.71-8.823-1.952-11.548,1.709l-54.605,73.589
		c-2.718,3.661-1.952,8.831,1.709,11.548c1.476,1.097,3.202,1.629,4.911,1.629c2.524,0,5.016-1.153,6.637-3.338l54.605-73.589
		C265.757,169.735,264.99,164.565,261.329,161.847z"/>
	<path style="fill:#FF8C5A;" d="M239.595,145.137c-3.25-3.202-8.476-3.186-11.677,0.065l-68.113,68.863
		c-3.209,3.242-3.177,8.468,0.065,11.677c1.613,1.589,3.71,2.388,5.806,2.388c2.13,0,4.258-0.814,5.872-2.452l68.113-68.863
		C242.869,153.573,242.837,148.347,239.595,145.137z"/>
	<path style="fill:#FF8C5A;" d="M219.659,125.871c-2.629-3.718-7.774-4.605-11.508-1.976l-78.556,55.516
		c-3.725,2.629-4.613,7.782-1.976,11.508c1.605,2.274,4.161,3.492,6.75,3.492c1.645,0,3.306-0.492,4.758-1.516l78.556-55.516
		C221.41,134.75,222.296,129.597,219.659,125.871z"/>
	<path style="fill:#FF8C5A;" d="M205.103,105.549c-1.984-4.089-6.928-5.806-11.04-3.814l-83.266,40.516
		c-4.105,2.001-5.806,6.944-3.814,11.04c1.428,2.936,4.371,4.645,7.435,4.645c1.21,0,2.443-0.266,3.605-0.831l83.266-40.516
		C205.393,114.589,207.095,109.646,205.103,105.549z"/>
	<path style="fill:#FF8C5A;" d="M197.321,80.178c-1.322-4.347-5.872-6.822-10.306-5.5L97.24,101.936
		c-4.363,1.322-6.822,5.936-5.5,10.306c1.081,3.556,4.355,5.855,7.903,5.855c0.791,0,1.597-0.113,2.403-0.355l89.775-27.258
		C196.183,89.162,198.643,84.548,197.321,80.178z"/>
</g>
<path style="fill:#9F8976;" d="M428.902,454.195c-13.682,0-24.774-11.089-24.774-24.774c0-113.266-57.553-155.944-156.964-191.371
	c-66.065-23.548-109.871-72.484-130.202-145.435l-0.859-3.04c-3.863-13.129,3.649-26.896,16.774-30.758
	c13.129-3.871,26.9,3.653,30.758,16.774l1.056,3.718c5.872,21.081,23.746,85.202,99.11,112.064
	c98.617,35.152,189.875,88.321,189.875,238.048C453.676,443.106,442.583,454.195,428.902,454.195z"/>
<g>
	<path style="fill:#7A645A;" d="M255.016,240.967c0.35-5.106,3.277-25.116,27.433-42.225c0.126-0.089,0.166-0.236,0.284-0.331
		c-5.936-2.305-11.917-4.523-17.929-6.675c-18.339,16.108-23.91,33.528-25.604,43.218c2.636,1.053,5.251,2.129,7.963,3.095
		C249.853,239.007,252.389,239.997,255.016,240.967z"/>
	<path style="fill:#7A645A;" d="M198.675,149.911c0.683-0.113,1.32-0.317,1.916-0.584c-4.171-4.727-7.812-9.53-11.093-14.316
		c-22.803,5.396-35.267,17.373-41.696,26.57c3.326,5.001,6.821,9.821,10.519,14.423C161.078,170.18,170.953,154.489,198.675,149.911
		z"/>
	<path style="fill:#7A645A;" d="M222.103,226.339c0-0.249,0.141-24.577,29.35-39.968c-6.076-2.722-11.646-5.732-16.9-8.905
		c-19.755,13.804-26.058,31.141-28.031,41.081c4.971,3.078,10.085,5.999,15.41,8.683
		C221.963,226.924,222.106,226.655,222.103,226.339z"/>
	<path style="fill:#7A645A;" d="M453.53,421.83c-0.123-5.748-0.358-11.377-0.753-16.836c-23.257-3.238-39.235,0.915-49.264,5.733
		c0.374,6.028,0.613,12.215,0.613,18.693c0,0.033,0.01,0.065,0.01,0.098C408.7,425.86,423.578,416.836,453.53,421.83z"/>
	<path style="fill:#7A645A;" d="M117.593,94.683c1.679,5.856,3.544,11.523,5.528,17.065c4.046-4.354,18.904-17.478,47.383-14.018
		c-2.464-6.779-4.173-12.58-5.389-16.924C141.97,79.827,126.409,87.925,117.593,94.683z"/>
	<path style="fill:#7A645A;" d="M182.497,123.855c-3.175-5.594-5.816-11.02-8.034-16.151c-20.3,2.194-35.294,13.601-44.013,22.424
		c2.457,5.461,5.117,10.707,7.91,15.814C144.512,138.643,160.077,123.49,182.497,123.855z"/>
	<path style="fill:#7A645A;" d="M224.954,171.198c-5.204-3.72-9.964-7.624-14.312-11.664c-19.596,9.895-30.447,24.47-35.945,34.395
		c4.071,3.917,8.346,7.613,12.762,11.155C191.288,197.021,201.812,180.065,224.954,171.198z"/>
	<path style="fill:#7A645A;" d="M314.161,211.799c-5.47-2.562-11.01-5.022-16.613-7.384c-16.371,15.737-20.672,33.717-21.607,44.723
		c5.602,2.316,11.035,4.698,16.303,7.133C291.951,251.439,291.988,228.95,314.161,211.799z"/>
	<path style="fill:#7A645A;" d="M371.378,314.759c1.026-3.643,8.541-26.341,36.209-33.841c-3.773-4.692-7.717-9.187-11.848-13.467
		c-20.952,8.063-31.505,23.127-36.523,33.421C363.544,305.282,367.65,309.867,371.378,314.759z"/>
	<path style="fill:#7A645A;" d="M398.539,368.186c0.148-0.256,14.799-24.726,43.706-21.307c-1.791-5.796-3.785-11.371-5.956-16.754
		c-20.479,0.234-35.935,10.653-45.089,20.579c2.332,6.05,4.408,12.363,6.111,19.061C397.77,369.294,398.194,368.78,398.539,368.186z
		"/>
	<path style="fill:#7A645A;" d="M387.039,338.509c0.095-0.26,9.959-25.108,41.594-25.182c-2.829-5.493-5.844-10.781-9.078-15.821
		c-22.888,2.984-35.993,16.144-42.514,25.47c3.437,5.237,6.615,10.71,9.413,16.534C386.647,339.171,386.893,338.88,387.039,338.509z
		"/>
	<path style="fill:#7A645A;" d="M450.704,385.452c-0.818-5.846-1.784-11.531-2.925-17.029c-24.144-2.871-39.428,3.82-48.385,10.811
		c1.334,6.631,2.369,13.599,3.124,20.881c0.259-0.363,0.552-0.692,0.756-1.105C403.375,398.797,413.731,378.984,450.704,385.452z"/>
	<path style="fill:#7A645A;" d="M349.373,230.688c-5.121-3.165-10.348-6.192-15.683-9.079
		c-17.078,13.617-23.098,31.56-25.156,42.718c5.364,2.841,10.535,5.781,15.48,8.839C324.361,267.301,327.208,244.34,349.373,230.688
		z"/>
	<path style="fill:#7A645A;" d="M381.547,254.071c-4.354-3.753-8.855-7.33-13.478-10.756
		c-18.687,13.413-27.429,29.008-31.252,38.415c4.79,3.454,9.38,7.036,13.687,10.814
		C351.641,288.275,357.925,269.203,381.547,254.071z"/>
</g>
<g>
</g>
<g>
</g>
<g>
</g>
<g>
</g>
<g>
</g>
<g>
</g>
<g>
</g>
<g>
</g>
<g>
</g>
<g>
</g>
<g>
</g>
<g>
</g>
<g>
</g>
<g>
</g>
<g>
</g>
</svg>
