<svg id="Layer_1" height="512" viewBox="0 0 128 128" width="512" xmlns="http://www.w3.org/2000/svg" data-name="Layer 1"><g fill="#663325"><path d="m57.984 35.641a1.75 1.75 0 0 0 -3.138 1.551l2.038 4.124a1.75 1.75 0 1 0 3.138-1.55z"/><path d="m72.36 34.848a1.751 1.751 0 0 0 -2.344.793l-2.038 4.125a1.75 1.75 0 1 0 3.138 1.55l2.038-4.124a1.749 1.749 0 0 0 -.794-2.344z"/><path d="m39.808 75.077 6.776-5.869 7.516-3.036a1.75 1.75 0 0 0 -1.311-3.245l-7.789 3.144a1.76 1.76 0 0 0 -.49.3l-7 6.061a1.75 1.75 0 0 0 2.291 2.645z"/><path d="m53.537 71-6.993 3.529a1.708 1.708 0 0 0 -.462.338l-6.96 7.1a1.75 1.75 0 0 0 2.5 2.449l6.757-6.9 6.734-3.4a1.75 1.75 0 1 0 -1.576-3.116z"/><path d="m90.483 72.432-7-6.061a1.76 1.76 0 0 0 -.49-.3l-8.124-3.28a1.75 1.75 0 0 0 -1.311 3.245l7.854 3.172 6.776 5.869a1.75 1.75 0 0 0 2.291-2.645z"/></g><path d="m79.133 112.747a18.3 18.3 0 0 1 -18.21-18.283v-5.348a3.077 3.077 0 0 1 6.154 0v5.348a12.112 12.112 0 0 0 15.791 11.536 10.949 10.949 0 0 0 7.021-6.9 3.077 3.077 0 1 1 5.829 1.971 17.124 17.124 0 0 1 -10.981 10.79 18.428 18.428 0 0 1 -5.604.886z" fill="#ff9e00"/><path d="m41.062 59.79a15.816 15.816 0 0 1 -12.973-16.032 3.3 3.3 0 1 1 6.606.176 9.237 9.237 0 0 0 7.581 9.359 9.338 9.338 0 0 0 9.229-3.681 3.305 3.305 0 1 1 5.35 3.882 15.979 15.979 0 0 1 -15.793 6.296z" fill="#ffd300"/><path d="m31.329 46.409s19.333-1.6 9.846-23.744c0 0-1.614 3.282-7.609 5.053s-2.237 18.691-2.237 18.691z" fill="#dc3400"/><path d="m24.5 44.78c-4.468-2.464-6.525-6.2-6.525-11.407a18.119 18.119 0 0 1 18.12-18.12s-10.595 7.336-3.855 11.637c3.46 2.21 5.085 2.75 6.794 6.61 2.847 6.421-4.213 16.973-14.534 11.28z" fill="#ff4b00"/><path d="m86.938 59.79a15.816 15.816 0 0 0 12.973-16.032 3.3 3.3 0 1 0 -6.606.176 9.237 9.237 0 0 1 -7.581 9.359 9.338 9.338 0 0 1 -9.224-3.681 3.305 3.305 0 1 0 -5.35 3.882 15.979 15.979 0 0 0 15.788 6.296z" fill="#ff9e00"/><path d="m96.671 46.409s-19.333-1.6-9.846-23.744c0 0 1.614 3.282 7.609 5.053s2.237 18.691 2.237 18.691z" fill="#dc3400"/><path d="m103.5 44.78c4.468-2.464 6.525-6.2 6.525-11.407a18.119 18.119 0 0 0 -18.12-18.12s10.595 7.336 3.855 11.637c-3.46 2.21-5.085 2.75-6.794 6.61-2.847 6.421 4.213 16.973 14.534 11.28z" fill="#ff4b00"/><path d="m71.739 84.6a8.889 8.889 0 0 1 -15.478 0 27.453 27.453 0 0 1 -3.518-12.155l-1.264-25.7a5.911 5.911 0 0 1 5.9-6.2h13.238a5.911 5.911 0 0 1 5.9 6.2l-1.264 25.7a27.453 27.453 0 0 1 -3.514 12.155z" fill="#ff4b00"/><path d="m99.242 99.837a8.413 8.413 0 0 0 4.589-8.022 12.743 12.743 0 0 0 -12.743-12.743s7.447 5.159 2.708 8.184c-2.434 1.554-3.575 1.934-4.778 4.647-2.002 4.518 2.963 11.939 10.224 7.934z" fill="#dc3400"/><path d="m52.427 66.019h23.146l.401-8.16h-23.948z" fill="#ffd300"/><path d="m78.1 104.784c-.2-.02-.39-.046-.584-.077a1.75 1.75 0 0 0 -.557 3.455q.392.063.786.1c.061.006.12.009.18.009a1.75 1.75 0 0 0 .175-3.491z" fill="#370001"/><path d="m18.378 29.167a1.747 1.747 0 0 0 2.22-1.093q.159-.47.347-.926a1.749 1.749 0 1 0 -3.236-1.33c-.152.37-.294.747-.424 1.128a1.751 1.751 0 0 0 1.093 2.221z" fill="#370001"/><path d="m91.908 13.5a1.751 1.751 0 0 0 -1 3.189c1.762 1.22 5.384 4.472 5.341 6.738-.009.465-.167 1.176-1.434 1.986-.479.3-.922.579-1.336.833-2.667 1.644-4.428 2.731-6.116 6.54a9.717 9.717 0 0 0 -.74 4.8c-1.31-3.588-.71-8.362 1.807-14.235a1.75 1.75 0 0 0 -3.217-1.378c-3.386 7.912-3.66 14.327-.813 19.06 3.828 6.363 11.787 7.092 12.124 7.12q.074.006.147.006a1.712 1.712 0 0 0 .381-.046c.185.011.37.023.557.025a14.128 14.128 0 0 1 -19.834 8.7l.17-3.465a11.136 11.136 0 0 0 6.096 1.827 11.081 11.081 0 0 0 8.105-3.544 1.75 1.75 0 1 0 -2.571-2.375 7.545 7.545 0 0 1 -11.408-.393l.1-2.059a7.66 7.66 0 0 0 -6-7.855l.88-1.781a1.75 1.75 0 0 0 -3.138-1.551l-1.557 3.15h-8.911l-1.557-3.15a1.75 1.75 0 0 0 -3.138 1.551l.88 1.781a7.66 7.66 0 0 0 -5.995 7.855l.1 2.059a7.575 7.575 0 0 1 -7.231 2.685 7.468 7.468 0 0 1 -5.71-4.885 14.332 14.332 0 0 0 6.71-5.655c2.849-4.736 2.575-11.148-.814-19.057a1.748 1.748 0 0 0 -1.562-1.06 1.7 1.7 0 0 0 -1.617.977c-.012.024-1.288 2.379-5.8 3.91-.208-.13-.4-.246-.622-.388-1.266-.809-1.425-1.52-1.434-1.984-.045-2.254 3.579-5.515 5.342-6.741a1.751 1.751 0 0 0 -1-3.188 19.874 19.874 0 0 0 -14.964 6.8 1.75 1.75 0 1 0 2.635 2.3 16.374 16.374 0 0 1 6.836-4.65 8.955 8.955 0 0 0 -2.352 5.548 5.811 5.811 0 0 0 3.051 4.87c.5.316.954.6 1.382.863 2.478 1.528 3.505 2.16 4.754 4.978 1.158 2.615.187 6.277-2.258 8.519-1.513 1.386-4.8 3.3-9.835.523-3.834-2.115-5.62-5.253-5.62-9.875a1.75 1.75 0 0 0 -3.5 0c0 5.949 2.43 10.182 7.43 12.939a15.483 15.483 0 0 0 3.014 1.274 17.614 17.614 0 0 0 19.851 14.028 1.75 1.75 0 0 0 -.51-3.463 14.134 14.134 0 0 1 -15.618-10.018c.187 0 .371-.014.556-.025a1.729 1.729 0 0 0 .382.046q.073 0 .147-.006a15.654 15.654 0 0 0 2.074-.357 11.042 11.042 0 0 0 10.411 7.4 11.129 11.129 0 0 0 6.094-1.829l.514 10.454-5.567 2.25a1.76 1.76 0 0 0 -.49.3l-7 6.061a1.75 1.75 0 0 0 2.291 2.645l6.776-5.869 4.165-1.683.234 4.767-4.439 2.24a1.708 1.708 0 0 0 -.462.338l-6.96 7.1a1.75 1.75 0 0 0 2.5 2.449l6.757-6.9 3-1.515a29.355 29.355 0 0 0 3.356 9.45 10.553 10.553 0 0 0 4.445 4.246v4.759a20.052 20.052 0 0 0 19.96 20.041 20.18 20.18 0 0 0 6.136-.963 18.8 18.8 0 0 0 8.731-5.89 1.75 1.75 0 0 0 -2.688-2.242 15.306 15.306 0 0 1 -7.11 4.8 16.516 16.516 0 0 1 -21.529-15.742v-3.683a10.281 10.281 0 0 0 2.654 0v3.683a13.726 13.726 0 0 0 5.683 11.193 1.75 1.75 0 1 0 2.064-2.826 10.261 10.261 0 0 1 -4.247-8.367v-4.763a10.553 10.553 0 0 0 4.435-4.243 29.359 29.359 0 0 0 3.743-12.93l.246-5.006 4.165 1.683 6.776 5.869a1.75 1.75 0 0 0 2.291-2.645l-7-6.061a1.76 1.76 0 0 0 -.49-.3l-5.564-2.247.16-3.248a17.7 17.7 0 0 0 6.454 1.231 17.63 17.63 0 0 0 17.287-14.221 15.483 15.483 0 0 0 3.014-1.274c5-2.757 7.43-6.99 7.43-12.939a19.894 19.894 0 0 0 -19.866-19.869zm-54.6 14.641a15.227 15.227 0 0 0 3.292-2.135c1.617 4.649 1.865 8.5.777 11.526a9.692 9.692 0 0 0 -.743-4.744 11.727 11.727 0 0 0 -3.325-4.645zm32.906 55.6a7.139 7.139 0 0 1 -12.43 0 25.844 25.844 0 0 1 -3.294-11.381l-.627-12.75h15.7a1.75 1.75 0 0 0 0-3.5h-15.871l-.464-9.453a4.159 4.159 0 0 1 4.155-4.365h13.234a4.159 4.159 0 0 1 4.155 4.365l-.866 17.613h-15.989a1.75 1.75 0 0 0 0 3.5h15.817l-.225 4.589a25.844 25.844 0 0 1 -3.294 11.381zm32.443-40.492c-5.036 2.775-8.323.863-9.835-.523-2.445-2.242-3.416-5.9-2.258-8.519 1.249-2.818 2.276-3.45 4.754-4.978.428-.264.886-.547 1.382-.863a5.811 5.811 0 0 0 3.051-4.87 8.955 8.955 0 0 0 -2.351-5.546 16.4 16.4 0 0 1 10.88 15.423c-.002 4.622-1.788 7.76-5.622 9.875z" fill="#370001"/><path d="m87.628 84.949a1.75 1.75 0 0 0 1.25-2.974l-6.96-7.1a1.75 1.75 0 1 0 -2.5 2.449l6.96 7.105a1.744 1.744 0 0 0 1.25.52z" fill="#370001"/><path d="m91.088 77.322a1.75 1.75 0 0 0 -1 3.188c1.5 1.036 3.554 3.108 3.532 4.3 0 .132-.009.484-.769.969-.334.213-.644.4-.932.582a9.322 9.322 0 0 0 -4.5 4.831 8.215 8.215 0 0 0 .752 7.5 9.168 9.168 0 0 1 -5.1 5.371 1.75 1.75 0 1 0 1.348 3.23 12.665 12.665 0 0 0 6.363-5.881 7.9 7.9 0 0 0 4.389 1.311 10.723 10.723 0 0 0 10.408-10.911 14.51 14.51 0 0 0 -14.491-14.49zm7.312 20.983c-2.413 1.33-4.656 1.226-6.315-.3a5.084 5.084 0 0 1 -1.464-5.4c.814-1.835 1.447-2.226 3.142-3.27.3-.186.627-.387.978-.611a4.58 4.58 0 0 0 2.385-3.853 5.518 5.518 0 0 0 -.713-2.68 11 11 0 0 1 5.671 9.617 6.667 6.667 0 0 1 -3.684 6.497z" fill="#370001"/></svg>