<?xml version="1.0" encoding="iso-8859-1"?>
<!-- Generator: Adobe Illustrator 19.0.0, SVG Export Plug-In . SVG Version: 6.00 Build 0)  -->
<svg version="1.1" id="Layer_1" xmlns="http://www.w3.org/2000/svg" xmlns:xlink="http://www.w3.org/1999/xlink" x="0px" y="0px"
	 viewBox="0 0 512 512" style="enable-background:new 0 0 512 512;" xml:space="preserve">
<g>
	<path style="fill:#FF5023;" d="M237.777,476.922c-9.722,14.442-29.311,18.27-43.754,8.549c-14.443-9.721-18.27-29.311-8.549-43.754
		c9.722-14.442,56.115-58.091,70.558-48.369C270.474,403.07,247.499,462.479,237.777,476.922z"/>
	<path style="fill:#FF5023;" d="M270.166,476.922c9.722,14.442,29.311,18.27,43.753,8.549c14.442-9.722,18.27-29.311,8.549-43.754
		c-9.722-14.442-56.115-58.091-70.558-48.369C237.467,403.069,260.445,462.479,270.166,476.922z"/>
</g>
<g>
	<path style="fill:#FF3501;" d="M287.555,472.872c0,17.41-14.114,31.524-31.524,31.524s-31.524-14.114-31.524-31.524
		s14.114-79.525,31.524-79.525C273.442,393.347,287.555,455.463,287.555,472.872z"/>
	<path style="fill:#FF3501;" d="M313.009,430.448c-17.262-18.266-49.493-44.912-61.098-37.1c-9.001,6.059-3.468,31.413,4.331,53.158
		h13.947C286.562,446.506,301.534,440.436,313.009,430.448z"/>
	<path style="fill:#FF3501;" d="M256.032,393.348c-11.188-7.531-41.542,16.96-59.177,35.096
		c11.726,11.177,27.58,18.061,45.021,18.061h9.825C259.501,424.761,265.032,399.406,256.032,393.348z"/>
</g>
<g>
	<path style="fill:#CD2A00;" d="M241.875,446.505h28.314c4.525,0,8.943-0.464,13.211-1.344
		c-5.435-23.701-15.655-51.813-27.368-51.813c-11.712,0-21.933,28.112-27.368,51.813
		C232.932,446.041,237.35,446.505,241.875,446.505z"/>
	<path style="fill:#CD2A00;" d="M295.943,239.842L295.943,239.842c8.818,9.308,23.647,9.709,32.956,0.891l104.258-98.766
		c9.308-8.818,9.709-23.647,0.891-32.956l0,0c-8.818-9.308-23.647-9.709-32.956-0.891l-104.258,98.766
		C287.527,215.704,287.125,230.534,295.943,239.842z"/>
</g>
<path style="fill:#FF5023;" d="M370.884,130.224c17.743,22.668,50.501,26.659,73.169,8.917
	c22.668-17.743,26.659-50.501,8.917-73.169C435.228,43.304,366.7-6.385,344.032,11.357S353.142,107.557,370.884,130.224z"/>
<path style="fill:#FF3501;" d="M370.884,130.224C353.142,107.557,321.365,29.1,344.032,11.357l100.021,127.784
	C421.387,156.884,388.628,152.891,370.884,130.224z"/>
<path style="fill:#AB2300;" d="M357.822,213.333c-1.313-15.591-5.046-34.8-10.439-54.333l-50.549,47.887
	c-9.308,8.818-9.709,23.647-0.891,32.956s23.647,9.709,32.956,0.891L357.822,213.333z"/>
<path style="fill:#CD2A00;" d="M216.121,239.842L216.121,239.842c-8.818,9.308-23.647,9.709-32.956,0.891L78.907,141.967
	c-9.308-8.818-9.709-23.647-0.891-32.956l0,0c8.818-9.308,23.647-9.709,32.956-0.891l104.258,98.766
	C224.537,215.704,224.938,230.534,216.121,239.842z"/>
<path style="fill:#FF5023;" d="M141.179,130.224c-17.743,22.668-50.501,26.659-73.169,8.917S41.35,88.64,59.093,65.972
	s86.27-72.357,108.938-54.615S158.922,107.557,141.179,130.224z"/>
<path style="fill:#FF3501;" d="M141.179,130.224c17.743-22.668,49.519-101.125,26.852-118.867L68.01,139.141
	C90.677,156.884,123.436,152.891,141.179,130.224z"/>
<path style="fill:#AB2300;" d="M164.68,159c-5.393,19.534-9.125,38.743-10.439,54.333l28.924,27.401
	c9.308,8.818,24.138,8.416,32.956-0.891l0,0c8.818-9.308,8.416-24.138-0.891-32.956L164.68,159z"/>
<path style="fill:#FF5023;" d="M270.189,421.158h-28.313c-21.984,0-39.97-17.987-39.97-39.97v-4.795
	c0-21.984,17.987-39.97,39.97-39.97h28.313c21.984,0,39.97,17.987,39.97,39.97v4.795
	C310.159,403.171,292.172,421.158,270.189,421.158z"/>
<path style="fill:#FF3501;" d="M270.189,336.423h-28.313c-21.984,0-39.97,17.987-39.97,39.97v4.795c0,2.071,0.16,4.108,0.468,6.096
	c10.884,6.767,23.711,10.689,37.443,10.689h32.432c13.732,0,26.559-3.922,37.443-10.689c0.308-1.989,0.468-4.025,0.468-6.096v-4.795
	C310.159,354.409,292.172,336.423,270.189,336.423z"/>
<path style="fill:#FF5023;" d="M272.248,372.627h-32.432c-25.182,0-45.786-20.604-45.786-45.786v-5.492
	c0-25.182,20.604-45.786,45.786-45.786h32.432c25.182,0,45.786,20.604,45.786,45.786v5.492
	C318.035,352.023,297.43,372.627,272.248,372.627z"/>
<path style="fill:#FF3501;" d="M272.248,275.561h-32.432c-25.182,0-45.786,20.604-45.786,45.786v5.492
	c0,3.03,0.305,5.992,0.874,8.862c12.281,8.642,27.229,13.738,43.355,13.738h35.548c16.124,0,31.074-5.096,43.355-13.738
	c0.569-2.87,0.874-5.832,0.874-8.862v-5.492C318.035,296.166,297.43,275.561,272.248,275.561z"/>
<path style="fill:#FF5023;" d="M273.806,324.094h-35.548c-27.601,0-50.183-22.583-50.183-50.183v-6.019
	c0-27.601,22.583-50.183,50.183-50.183h35.548c27.601,0,50.183,22.583,50.183,50.183v6.019
	C323.989,301.511,301.407,324.094,273.806,324.094z"/>
<path style="fill:#FF3501;" d="M323.989,267.891c0-27.601-22.583-50.183-50.183-50.183h-35.548
	c-27.601,0-50.183,22.583-50.183,50.183v6.019c0,4.211,0.531,8.302,1.521,12.217c0.558,0.267,25.037,10.12,66.437,10.12
	c39.71,0,65.879-9.854,66.437-10.12c0.989-3.915,1.521-8.006,1.521-12.217v-6.019H323.989z"/>
<path style="fill:#FF6243;" d="M333.001,224.735c0,42.509-34.46,46.166-76.969,46.166c-42.509,0-76.969-3.657-76.969-46.166
	s34.46-160.943,76.969-160.943S333.001,182.226,333.001,224.735z"/>
<g>
	<path style="fill:#FF5023;" d="M220.387,224.735c0-35.35,23.833-123.198,56.307-151.785c-6.576-5.788-13.504-9.158-20.663-9.158
		c-42.509,0-76.969,118.435-76.969,160.943s34.46,46.166,76.969,46.166c7.161,0,14.085-0.111,20.663-0.487
		C244.224,268.56,220.387,260.083,220.387,224.735z"/>
	<path style="fill:#FF5023;" d="M282.341,162.56c-1.378-4.315-2.84-8.585-4.345-12.693c-1.446-3.943,0.579-8.311,4.522-9.756
		c3.942-1.447,8.311,0.578,9.756,4.522c1.58,4.307,3.112,8.782,4.554,13.301c1.277,4.001-0.897,8.386-4.93,9.557
		C287.36,168.808,283.373,165.792,282.341,162.56z"/>
	<path style="fill:#FF5023;" d="M302.586,232.34c-4.199,0-7.604-3.405-7.604-7.604c0-8.407-2.339-23.294-6.104-38.854
		c-0.987-4.082,1.521-8.192,5.602-9.18c4.086-0.99,8.192,1.521,9.179,5.602c4.09,16.899,6.531,32.762,6.531,42.431
		C310.19,228.935,306.785,232.34,302.586,232.34z"/>
</g>
<g>
	<path style="fill:#1D1D1F;" d="M239.118,113.394c-2.358,0-4.656-0.953-6.31-2.62c-1.668-1.656-2.62-3.965-2.62-6.31
		c0-2.346,0.952-4.656,2.62-6.311c1.655-1.667,3.952-2.619,6.31-2.619c2.357,0,4.656,0.952,6.31,2.619
		c1.668,1.656,2.62,3.965,2.62,6.311c0,2.345-0.952,4.656-2.62,6.31C243.774,112.441,241.474,113.394,239.118,113.394z"/>
	<path style="fill:#1D1D1F;" d="M272.946,113.394c-2.358,0-4.656-0.953-6.31-2.62c-1.668-1.656-2.62-3.965-2.62-6.31
		c0-2.346,0.952-4.656,2.62-6.311c1.655-1.667,3.952-2.619,6.31-2.619c2.357,0,4.656,0.952,6.31,2.619
		c1.668,1.656,2.62,3.965,2.62,6.311c0,2.345-0.952,4.656-2.62,6.31C277.602,112.441,275.304,113.394,272.946,113.394z"/>
</g>
<path d="M55.739,69.847c3.773,3.49,9.214,0.897,10.719-0.873c1.829-2.153,4.104-4.547,6.762-7.115
	c3.02-2.917,3.104-7.731,0.187-10.752c-2.918-3.02-7.731-3.105-10.752-0.187c-3.016,2.914-5.637,5.675-7.788,8.208
	C52.148,62.329,52.657,66.995,55.739,69.847z"/>
<path d="M385.98,197.133l44.633-42.282c6.484-2.134,12.594-5.39,18.128-9.722c25.934-20.299,30.517-57.911,10.219-83.843
	C444.306,42.565,390.462,0,356.656,0c-6.934,0-12.757,1.807-17.31,5.369c-16.001,12.525-11.186,42.663-4.33,65.74
	c6.81,22.921,18.624,48.493,28.573,62.066l-6.697,6.344l-43.778-86.711c-1.047-2.073-2.985-3.555-5.261-4.022
	c-2.274-0.467-4.64,0.133-6.419,1.627l-19.876,16.701c-7.698-6.736-16.219-10.927-25.527-10.927s-17.829,4.19-25.527,10.927
	l-19.876-16.7c-1.778-1.494-4.143-2.094-6.419-1.627c-2.276,0.466-4.214,1.948-5.261,4.022l-43.778,86.711l-6.697-6.344
	c9.949-13.573,21.763-39.143,28.573-62.066c6.857-23.078,11.672-53.216-4.33-65.741c-25.485-19.946-81.884,22.139-92.93,30.778
	c-3.308,2.587-3.892,7.366-1.306,10.674c2.587,3.308,7.367,3.894,10.674,1.306c26.2-20.489,52.082-33.059,66.261-32.991
	L67.109,127.955c-10.279-11.315-14.107-27.17-9.747-42.245c1.167-4.034-1.158-8.251-5.192-9.417
	c-4.034-1.167-8.251,1.158-9.417,5.192c-6.811,23.55,1.263,48.532,20.57,63.643c4.578,3.583,9.565,6.434,14.82,8.524l47.609,44.138
	L57.491,332.995c-1.893,3.749-0.442,8.433,3.361,10.216c4.828,2.263,8.877-0.712,10.216-3.361l66.289-131.3l36.35,33.7
	c1.649,5.869,4.209,11.017,7.679,15.426c-2.322,14.8-0.51,24.103,0.261,27.859l-9.342-5.631c-1.834-1.105-4.049-1.387-6.102-0.774
	c-2.052,0.613-3.75,2.063-4.678,3.995L146.19,315.06c-1.817,3.786-0.315,8.536,3.564,10.146c5.061,2.101,8.838-0.839,10.146-3.564
	l11.714-24.399l16.704,10.068c-3.257,11.8-1.414,27.604-0.537,31.437l-7.586-4.573c-1.834-1.105-4.049-1.387-6.102-0.774
	c-2.052,0.613-3.75,2.063-4.678,3.995l-15.334,31.937c-1.817,3.786-0.284,8.462,3.564,10.146c5.112,2.238,8.838-0.839,10.146-3.564
	l11.714-24.399l17.109,10.312c-1.516,4.695-2.315,9.622-2.315,14.563v4.795c0,11.113,3.84,21.34,10.25,29.447
	c-10.746,9.51-20.928,20.215-25.384,26.836c-12.048,17.898-7.288,42.261,10.61,54.307c6.596,4.44,14.204,6.684,21.843,6.684
	c4.395,0,8.796-0.761,13.024-2.257c7.141,9.58,18.553,15.796,31.39,15.796c12.375,0,23.419-5.782,30.594-14.778
	c3.194,0.817,6.449,1.229,9.697,1.229c7.672,0,15.286-2.259,21.843-6.672c17.898-12.048,22.658-36.41,10.61-54.307
	c-4.112-6.108-13.145-15.754-23.028-24.726c7.467-8.405,12.015-19.457,12.015-31.557v-4.795c0-5.001-0.776-9.882-2.298-14.572
	l17.093-10.303l11.714,24.399c1.309,2.725,5.204,6.139,10.146,3.564c3.725-1.941,5.382-6.36,3.564-10.146l-15.334-31.937
	c-0.928-1.931-2.626-3.381-4.678-3.995c-2.054-0.613-4.268-0.333-6.102,0.774l-7.586,4.573c0.877-3.832,3.562-19.383-0.538-31.436
	l16.705-10.069l11.714,24.399c1.309,2.725,4.072,6.341,10.146,3.564c3.82-1.746,5.382-6.36,3.564-10.146l-15.334-31.937
	c-0.928-1.931-2.626-3.381-4.678-3.995c-2.055-0.613-4.268-0.333-6.102,0.774l-9.37,5.647c0.786-3.788,4.216-18.399,0.277-27.86
	c3.477-4.413,6.042-9.568,7.692-15.445l36.097-34.196l66.542,131.799c1.338,2.65,5.64,5.877,10.216,3.361
	c3.679-2.024,5.254-6.466,3.361-10.216L385.98,197.133z M446.984,70.658c13.531,17.288,12.217,41.532-2.038,57.286L356.705,15.21
	C382.399,15.256,432.326,51.932,446.984,70.658z M344.742,24.599l88.242,112.735c-6.427,3.471-13.572,5.283-21.017,5.283
	c0,0-0.002,0-0.003,0c-13.806-0.001-26.596-6.226-35.092-17.081c-7.673-9.803-19.841-33.728-27.278-58.759
	C343.456,46.121,342.79,32.476,344.742,24.599z M374.009,144.251c8.996,7.424,19.958,12.027,31.703,13.239l-26.888,25.471
	l-14.779-29.272L374.009,144.251z M303.866,68.235l41.501,82.201l-14.882,14.099c-3.627-13.257-8.046-26.697-12.964-39.029
	c-6.425-16.108-15.006-33.782-25.573-47.256L303.866,68.235z M291.103,312.792c-3.831,1.72-5.644,6.267-3.823,10.051
	c2.717,5.647,9.041,4.277,10.051,3.823c4.74-2.128,9.092-4.85,12.997-8.046c0.065,0.905,0.103,8.219,0.103,8.219
	c0,21.054-17.128,38.182-38.182,38.182h-32.432c-21.054,0-38.182-17.128-38.182-38.182c0,0,0.042-7.291,0.104-8.184
	c9.961,8.145,22.679,13.042,36.52,13.042h30.447c4.199,0,7.604-3.405,7.604-7.604s-3.405-7.604-7.604-7.604h-30.447
	c-23.479,0-42.58-19.101-42.58-42.58v-4.589c0.92,0.478,29.177,9.183,60.353,9.183c30.669,0,59.434-8.705,60.353-9.183v4.589
	C316.385,290.637,306.461,305.898,291.103,312.792z M302.555,381.188c0,17.847-14.52,32.367-32.367,32.367h-28.314
	c-17.847,0-32.367-14.52-32.367-32.367c0,0,0.155-8.369,0.445-10.111c8.529,5.776,18.808,9.153,29.862,9.153h32.432
	c11.055,0,21.336-3.378,29.865-9.155C302.404,372.82,302.555,381.188,302.555,381.188z M256.032,71.395
	c14.736,0,32.442,22.334,47.363,59.744c14.291,35.831,22.003,74.966,22.003,93.596c0,32.791-22.368,38.562-69.365,38.562
	s-69.365-5.77-69.365-38.562c0-18.63,7.711-57.765,22.003-93.596C223.591,93.729,241.296,71.395,256.032,71.395z M208.197,68.235
	l11.918,10.015c-10.566,13.474-19.148,31.148-25.573,47.256c-4.918,12.333-9.339,25.771-12.964,39.029l-14.882-14.099
	L208.197,68.235z M162.469,66.778c-7.437,25.03-19.605,48.955-27.278,58.759c-7.329,9.363-17.866,15.312-29.671,16.751
	c-9.245,1.127-18.398-0.632-26.432-4.965l88.233-112.724C169.273,32.476,168.607,46.121,162.469,66.778z M104.79,157.619
	c0.857-0.068,21.805-0.64,33.261-13.371l9.965,9.441l-15.134,29.975L104.79,157.619z M159.542,164.606
	c0,0,17.538,16.564,17.835,16.774c-3.19,14.204-5.25,27.506-5.779,38.176l-27.11-25.134L159.542,164.606z M198.269,479.163
	c-10.942-7.365-13.851-22.258-6.486-33.201c3.379-5.021,12.7-15.117,24.046-24.994c3.136,2.06,6.526,3.76,10.116,5.041
	c-5.641,18.034-9.04,37.531-9.04,46.863c0,3.269,0.409,6.442,1.167,9.479C211.399,484.222,204.171,483.135,198.269,479.163z
	 M256.032,496.792c-13.189,0-23.919-10.73-23.919-23.92c0-7.262,3.16-26.349,8.922-44.131c0.281,0.005,29.713,0.005,29.994,0
	c5.762,17.786,8.923,36.888,8.923,44.131C279.951,486.062,269.222,496.792,256.032,496.792z M316.16,445.963
	c7.365,10.942,4.455,25.835-6.486,33.2c-4.728,3.182-10.352,4.52-15.879,3.934c0.884-3.262,1.364-6.686,1.364-10.224
	c0-9.309-3.401-28.825-9.041-46.862c2.683-0.956,5.252-2.151,7.69-3.552C304.47,431.926,312.97,441.222,316.16,445.963z
	 M340.452,219.313c-0.546-10.604-2.59-23.772-5.742-37.833l17.813-16.874l14.779,29.272L340.452,219.313z"/>
<g>
</g>
<g>
</g>
<g>
</g>
<g>
</g>
<g>
</g>
<g>
</g>
<g>
</g>
<g>
</g>
<g>
</g>
<g>
</g>
<g>
</g>
<g>
</g>
<g>
</g>
<g>
</g>
<g>
</g>
</svg>
